<svg width="25" height="23" viewBox="0 0 25 23" fill="none" xmlns="http://www.w3.org/2000/svg">
<path d="M10.5713 0.897458C10.7961 0.629632 11.0751 0.411572 11.39 0.257345C11.705 0.103118 12.049 0.016147 12.4 0.00204233C12.7509 -0.0120623 13.1009 0.0470122 13.4274 0.175456C13.7539 0.3039 14.0496 0.49886 14.2956 0.747763L14.4313 0.897458L19.3731 6.78297H23.1238C23.3875 6.78241 23.6483 6.83716 23.8892 6.94364C24.1301 7.05011 24.3457 7.2059 24.5217 7.40081C24.6977 7.59572 24.8303 7.82534 24.9108 8.07465C24.9912 8.32397 25.0177 8.58733 24.9885 8.84751L24.8729 9.80307L24.7472 10.7262L24.6442 11.4173L24.5248 12.1595L24.3891 12.9392L24.2358 13.7475L24.0649 14.5721C23.9745 14.9879 23.8773 15.4033 23.7734 15.8183C23.4953 16.9136 23.1461 17.9899 22.728 19.0405L22.4503 19.7141L22.1814 20.3229L21.9276 20.8643L21.8095 21.1063L21.4966 21.7175C21.0946 22.4785 20.3356 22.9276 19.5327 22.9924L19.3317 22.9999H5.65957C5.22029 23.0032 4.78837 22.8879 4.40994 22.6665C4.03151 22.445 3.72078 22.1256 3.51093 21.7425L3.21942 21.1811L2.99325 20.7196L2.87388 20.4638L2.62258 19.9037C2.04873 18.5808 1.58315 17.2142 1.23036 15.8171C1.16215 15.5458 1.09681 15.2738 1.03435 15.0012L0.855925 14.1929L0.696348 13.402L0.555618 12.6373L0.429967 11.905L0.320651 11.2139L0.227669 10.574L0.114583 9.72198L0.031653 9.02839L0.0102923 8.83753C-0.0156993 8.59246 0.007657 8.34469 0.0790024 8.10866C0.150348 7.87263 0.268258 7.65303 0.425873 7.46266C0.583489 7.27228 0.777662 7.11492 0.997098 6.99973C1.21653 6.88455 1.45685 6.81383 1.70407 6.7917L1.87496 6.78297H5.63067L10.5713 0.897458ZM22.4064 9.27789H2.59117L2.66907 9.88166L2.76457 10.5653L2.88016 11.3187L3.01587 12.1271C3.06613 12.404 3.1189 12.6876 3.17419 12.9778L3.35387 13.8598C3.44936 14.3064 3.55491 14.7605 3.668 15.212C3.98687 16.473 4.40706 17.7065 4.92451 18.9008L5.17078 19.4509L5.39947 19.9299L5.60428 20.3329L5.69475 20.505H19.299L19.4925 20.127L19.7149 19.6717L19.9587 19.144C20.4198 18.1149 20.9475 16.7514 21.3346 15.212C21.4916 14.5883 21.6311 13.9546 21.7555 13.3321L21.9314 12.4115L22.0822 11.5271L22.1488 11.1042L22.2681 10.3095L22.3649 9.59848L22.4064 9.27789ZM9.97066 12.8157L10.5989 16.5581C10.6428 16.8795 10.5588 17.2052 10.3649 17.4662C10.1709 17.7272 9.88221 17.9029 9.55994 17.9561C9.23768 18.0093 8.90721 17.9358 8.6386 17.7512C8.36999 17.5666 8.18436 17.2854 8.12107 16.9672L7.49282 13.2248C7.46023 13.061 7.46111 12.8924 7.4954 12.7289C7.52968 12.5654 7.59667 12.4104 7.69241 12.2732C7.78814 12.1359 7.91066 12.019 8.05271 11.9296C8.19476 11.8402 8.35345 11.78 8.51936 11.7526C8.68528 11.7252 8.85505 11.7312 9.0186 11.7701C9.18216 11.8091 9.33617 11.8802 9.47151 11.9794C9.60686 12.0785 9.72078 12.2036 9.80652 12.3473C9.89226 12.4909 9.94807 12.6502 9.97066 12.8157ZM16.3311 11.7728L16.4769 11.789C16.781 11.8389 17.0561 11.9979 17.2498 12.236C17.4434 12.474 17.5422 12.7745 17.5273 13.0801L17.511 13.2248L16.8827 16.9672C16.8294 17.2805 16.6578 17.5618 16.4027 17.7536C16.1477 17.9455 15.8285 18.0336 15.5103 17.9999C15.1921 17.9661 14.8989 17.8131 14.6904 17.5721C14.482 17.3311 14.374 17.0201 14.3886 16.7028L14.4049 16.5581L15.0331 12.8157C15.0833 12.5142 15.2432 12.2415 15.4824 12.0492C15.7217 11.857 16.0237 11.7586 16.3311 11.7728ZM12.5013 2.49421L8.90137 6.78297H16.1012L12.5013 2.49421Z" fill="#2420A1"/>
</svg>
